<?xml version="1.0" encoding="UTF-8"?>
<!DOCTYPE svg PUBLIC "-//W3C//DTD SVG 1.1//EN" "http://www.w3.org/Graphics/SVG/1.1/DTD/svg11.dtd">
<!-- Creator: CorelDRAW X7 -->
<svg xmlns="http://www.w3.org/2000/svg" xml:space="preserve" width="50mm" height="20mm" version="1.1" style="shape-rendering:geometricPrecision; text-rendering:geometricPrecision; image-rendering:optimizeQuality; fill-rule:evenodd; clip-rule:evenodd"
viewBox="0 0 5000 2000"
 xmlns:xlink="http://www.w3.org/1999/xlink">
 <defs>
  <style type="text/css">
   <![CDATA[
    .str0 {stroke:white;stroke-width:25}
    .fil0 {fill:#3300CC}
    .fil1 {fill:#6699FF}
   ]]>
  </style>
 </defs>
 <g id="Слой_x0020_1">
  <metadata id="CorelCorpID_0Corel-Layer"/>
  <g id="_2425581165440">
   <path class="fil0 str0" d="M388 1385c113,251 498,379 766,195 63,-43 149,-119 179,-195 -15,0 -34,1 -49,0 -11,0 -13,-1 -23,-3l-106 -485 -32 62c27,124 35,208 -23,317 -39,73 -115,142 -227,146l-27 1c-110,-6 -184,-73 -223,-141 -41,-73 -71,-208 -30,-297 -7,-29 -36,-75 -53,-94l-95 486 -26 8c-5,1 -24,0 -31,0z"/>
   <path class="fil0 str0" d="M1906 792c231,-69 292,328 91,383 -234,64 -301,-322 -91,-383zm364 270c101,-446 -539,-594 -639,-162 -105,450 539,605 639,162z"/>
   <path class="fil0 str0" d="M2361 907c-4,76 -12,305 16,359 23,45 68,64 128,59 64,-5 92,-40 130,-69l2 69 120 -20 5 -400 -135 2c-6,99 20,264 -42,296 -95,12 -86,-24 -86,-108 0,-61 3,-130 -2,-190l-136 2z"/>
   <path class="fil0 str0" d="M636 568c12,45 90,161 117,213 112,-31 109,-19 215,-1l115 -215c-83,-23 -123,-45 -223,-46 -81,0 -159,17 -224,49z"/>
   <path class="fil0 str0" d="M3003 1307c18,-58 -2,-139 7,-202 9,-68 71,-60 138,-60l0 -150c-89,2 -102,29 -147,73l-4 -63 -129 3 3 398 132 1z"/>
  </g>
  <g id="_2425581163424">
   <path class="fil1 str0" d="M388 1385c7,0 26,1 31,0l26 -8 95 -486c17,19 46,65 53,94 27,27 49,74 68,109l125 216c19,34 46,74 60,113l27 -1 250 -463 32 -62 106 485c10,2 12,3 23,3 15,1 34,0 49,0l157 -1 -227 -1108c0,-3 -2,-3 -4,-5 -44,23 -128,244 -176,294l-115 215c-13,34 -86,170 -106,189l-109 -188c-27,-52 -105,-168 -117,-213 -27,-24 -127,-215 -160,-271 -19,-31 -9,-20 -35,-24l-221 1111 168 1z"/>
   <path class="fil1 str0" d="M3314 1307c36,-28 44,-244 72,-293l186 315c21,-17 76,-125 90,-152 28,-52 60,-108 84,-158 19,30 55,260 58,288l148 -1 -138 -666c-30,24 -96,163 -122,209 -21,39 -37,70 -59,108l-43 81c-15,21 -6,8 -17,17l-241 -415c-24,24 -132,593 -142,666l124 1z"/>
   <path class="fil1 str0" d="M4283 1190c-59,72 -139,13 -139,-78 0,-79 58,-145 140,-103l-1 181zm138 -284c-54,1 -95,9 -146,-7 -126,-39 -241,26 -268,156 -20,102 16,179 68,228 76,71 134,40 216,9l14 32 120 -32 -4 -386z"/>
   <path class="fil1 str0" d="M4768 670c0,96 -11,584 6,637l135 -1 0 -653 -141 17z"/>
   <path class="fil1 str0" d="M4527 904c-3,65 -10,359 5,403l135 -2 0 -418 -140 17z"/>
   <path class="fil1 str0" d="M4631 828c25,-27 55,-47 35,-103 -11,-32 -50,-58 -99,-41 -74,27 -69,165 64,144z"/>
  </g>
 </g>
</svg>
